<svg width="209" height="43" viewBox="0 0 209 43" fill="none" xmlns="http://www.w3.org/2000/svg">
<path d="M14.2231 14.0355L26.1295 27.6075L8.42261 31.1328L14.2231 14.0355Z" fill="#4450BD"/>
<path d="M32.6194 9.9266L26.5391 26.9264L14.857 13.1607L32.6194 9.9266Z" fill="#DE1C1C"/>
<circle cx="20.5" cy="20.5" r="18.5" stroke="#47C2E9" stroke-width="4"/>
<line x1="21.5" y1="4" x2="21.5" y2="12" stroke="black"/>
<line x1="21.5" y1="29" x2="21.5" y2="37" stroke="black"/>
<line x1="12.0004" y1="19.5" x2="4.00037" y2="19.5058" stroke="black"/>
<line x1="37.0004" y1="19.5" x2="29.0004" y2="19.5058" stroke="black"/>
<line x1="11.6285" y1="12.0538" x2="8.66444" y2="9.37052" stroke="black"/>
<line x1="29.3583" y1="29.6512" x2="32.1472" y2="32.5161" stroke="black"/>
<path d="M59.2188 10.2188C59.3594 10.1094 59.5156 9.96094 59.6875 9.77344C60.125 9.30469 60.625 8.42969 61.1875 7.14844C61.8125 5.77344 62.375 4.85156 62.875 4.38281C63.3906 3.89844 64.0391 3.65625 64.8203 3.65625C65.9766 3.65625 66.7969 4 67.2812 4.6875C67.7656 5.35937 68.0078 6.22656 68.0078 7.28906H65.2188C65.2188 6.78906 65.1562 6.44531 65.0312 6.25781C64.9062 6.07031 64.7969 5.97656 64.7031 5.97656C64.5469 5.97656 64.3906 6.13281 64.2344 6.44531C64.0781 6.75781 63.7734 7.38281 63.3203 8.32031C63.0234 8.96094 62.6797 9.57812 62.2891 10.1719C61.8984 10.7656 61.5156 11.1719 61.1406 11.3906L67.8906 20.4375H64.7969L59.2188 12.8672V20.4375H56.7109V6.16406C56.7109 5.67969 56.6719 5.34375 56.5938 5.15625C56.5156 4.96875 56.3906 4.85156 56.2188 4.80469C55.9688 4.72656 55.7266 4.65625 55.4922 4.59375C55.2734 4.51562 55.1641 4.35156 55.1641 4.10156C55.1641 3.67969 55.4688 3.46875 56.0781 3.46875H58.3516C58.9297 3.46875 59.2188 3.71875 59.2188 4.21875V10.2188ZM68.2891 14.3672C68.2891 12.5234 68.7656 11.0234 69.7188 9.86719C70.6875 8.71094 72.0547 8.13281 73.8203 8.13281C75.5859 8.13281 76.9453 8.71094 77.8984 9.86719C78.8672 11.0234 79.3516 12.5234 79.3516 14.3672C79.3516 16.2109 78.8672 17.7109 77.8984 18.8672C76.9453 20.0234 75.5859 20.6016 73.8203 20.6016C72.0547 20.6016 70.6875 20.0234 69.7188 18.8672C68.7656 17.7109 68.2891 16.2109 68.2891 14.3672ZM70.9375 14.3672C70.9375 15.9297 71.2188 17.0938 71.7812 17.8594C72.3594 18.6094 73.0391 18.9844 73.8203 18.9844C74.6016 18.9844 75.2734 18.6094 75.8359 17.8594C76.4141 17.0938 76.7031 15.9297 76.7031 14.3672C76.7031 12.8047 76.4141 11.6484 75.8359 10.8984C75.2734 10.1328 74.6016 9.75 73.8203 9.75C73.0391 9.75 72.3594 10.1328 71.7812 10.8984C71.2188 11.6484 70.9375 12.8047 70.9375 14.3672ZM80.2891 8.4375H84.8359L87.1328 16.9922L89.5234 8.4375H92.8984V20.4375H90.4375V12.2578L88.2812 19.6172C88.1875 19.8672 88.0625 20.0703 87.9062 20.2266C87.75 20.3672 87.4688 20.4375 87.0625 20.4375H86.0547L83.7578 12.4219V20.4375H81.2734V11.1328C81.2734 10.6484 81.2188 10.3125 81.1094 10.125C81.0156 9.9375 80.8828 9.82812 80.7109 9.79688C80.3984 9.71875 80.1406 9.64062 79.9375 9.5625C79.75 9.46875 79.6562 9.30469 79.6562 9.07031C79.6562 8.64844 79.8672 8.4375 80.2891 8.4375ZM95.4297 11.1328C95.4297 10.6484 95.375 10.3125 95.2656 10.125C95.1719 9.9375 95.0391 9.82812 94.8672 9.79688C94.5547 9.71875 94.2969 9.64062 94.0938 9.5625C93.9062 9.46875 93.8125 9.30469 93.8125 9.07031C93.8125 8.64844 94.0156 8.4375 94.4219 8.4375H104.969V20.4375H102.484V10.0078H98.5C98.2656 10.0234 98.1016 10.1016 98.0078 10.2422C97.9141 10.3672 97.8672 10.75 97.8672 11.3906V20.4375H95.4297V11.1328ZM114.25 19.3828C114.078 19.6172 113.711 19.8828 113.148 20.1797C112.586 20.4609 111.82 20.6016 110.852 20.6016C109.805 20.6016 108.93 20.2969 108.227 19.6875C107.539 19.0625 107.195 18.25 107.195 17.25C107.195 15.9219 107.789 14.8594 108.977 14.0625C110.18 13.2656 111.688 12.8672 113.5 12.8672H114.25V12.3047C114.25 11.5078 114.039 10.8828 113.617 10.4297C113.195 9.97656 112.656 9.75 112 9.75C111.422 9.75 110.938 9.89844 110.547 10.1953C110.156 10.4922 109.961 11 109.961 11.7188H107.336C107.336 10.6094 107.766 9.73438 108.625 9.09375C109.5 8.45312 110.648 8.13281 112.07 8.13281C113.57 8.13281 114.719 8.50781 115.516 9.25781C116.312 10.0078 116.711 11.0312 116.711 12.3281V20.4375H114.25V19.3828ZM114.25 14.5781C112.797 14.5312 111.664 14.7344 110.852 15.1875C110.055 15.625 109.656 16.2344 109.656 17.0156C109.656 17.6719 109.828 18.1328 110.172 18.3984C110.516 18.6641 110.906 18.7969 111.344 18.7969C112.094 18.7969 112.766 18.5391 113.359 18.0234C113.953 17.4922 114.25 16.8594 114.25 16.125V14.5781ZM127.82 19.8047C127.367 20.0859 126.805 20.2969 126.133 20.4375C125.461 20.5781 124.711 20.625 123.883 20.5781C122.32 20.4844 120.984 19.8672 119.875 18.7266C118.781 17.5859 118.234 15.9922 118.234 13.9453C118.234 12.1328 118.727 10.7109 119.711 9.67969C120.711 8.64844 122.055 8.13281 123.742 8.13281C125.102 8.13281 126.195 8.46875 127.023 9.14062C127.852 9.79688 128.305 10.6484 128.383 11.6953H125.805C125.805 11.0703 125.609 10.5938 125.219 10.2656C124.844 9.92188 124.312 9.75 123.625 9.75C122.953 9.75 122.312 10.1016 121.703 10.8047C121.109 11.5078 120.812 12.5547 120.812 13.9453C120.812 15.4141 121.148 16.5938 121.82 17.4844C122.508 18.3594 123.391 18.8516 124.469 18.9609C124.828 19.0078 125.219 18.9922 125.641 18.9141C126.078 18.8359 126.5 18.6953 126.906 18.4922C127.281 18.3047 127.594 18.2734 127.844 18.3984C128.094 18.5234 128.258 18.6562 128.336 18.7969C128.398 19 128.375 19.1953 128.266 19.3828C128.156 19.5703 128.008 19.7109 127.82 19.8047Z" fill="black"/>
<path d="M55.9082 33.833C55.9082 33.5303 55.874 33.3203 55.8057 33.2031C55.7471 33.0859 55.6641 33.0176 55.5566 32.998C55.3613 32.9492 55.2002 32.9004 55.0732 32.8516C54.9561 32.793 54.8975 32.6904 54.8975 32.5439C54.8975 32.2803 55.0488 32.1484 55.3516 32.1484H56.9189C57.2803 32.1484 57.4609 32.3047 57.4609 32.6172V34.9609C57.4902 34.8926 57.5586 34.7705 57.666 34.5947C57.8516 34.3115 58.0273 33.999 58.1934 33.6572C58.3789 33.3154 58.584 32.9883 58.8086 32.6758C59.043 32.3535 59.375 32.1729 59.8047 32.1338C60.4492 32.0752 60.9229 32.2363 61.2256 32.6172C61.5283 32.9883 61.6797 33.4375 61.6797 33.9648H60.1709C60.1709 33.7305 60.1416 33.5791 60.083 33.5107C60.0342 33.4326 59.9951 33.3936 59.9658 33.3936C59.9365 33.3936 59.8682 33.4863 59.7607 33.6719C59.6631 33.8574 59.5508 34.0918 59.4238 34.375C59.2969 34.6484 59.1357 34.9219 58.9404 35.1953C58.7549 35.4688 58.5693 35.6348 58.3838 35.6934L61.709 39.6484H59.9072L57.4609 36.6016V39.6484H55.9082V33.833ZM66.4697 38.9893C66.3623 39.1357 66.1328 39.3018 65.7812 39.4873C65.4297 39.6631 64.9512 39.751 64.3457 39.751C63.6914 39.751 63.1445 39.5605 62.7051 39.1797C62.2754 38.7891 62.0605 38.2812 62.0605 37.6562C62.0605 36.8262 62.4316 36.1621 63.1738 35.6641C63.9258 35.166 64.8682 34.917 66.001 34.917H66.4697V34.5654C66.4697 34.0674 66.3379 33.6768 66.0742 33.3936C65.8105 33.1104 65.4736 32.9688 65.0635 32.9688C64.7021 32.9688 64.3994 33.0615 64.1553 33.2471C63.9111 33.4326 63.7891 33.75 63.7891 34.1992H62.1484C62.1484 33.5059 62.417 32.959 62.9541 32.5586C63.501 32.1582 64.2188 31.958 65.1074 31.958C66.0449 31.958 66.7627 32.1924 67.2607 32.6611C67.7588 33.1299 68.0078 33.7695 68.0078 34.5801V39.6484H66.4697V38.9893ZM66.4697 35.9863C65.5615 35.957 64.8535 36.084 64.3457 36.3672C63.8477 36.6406 63.5986 37.0215 63.5986 37.5098C63.5986 37.9199 63.7061 38.208 63.9209 38.374C64.1357 38.54 64.3799 38.623 64.6533 38.623C65.1221 38.623 65.542 38.4619 65.9131 38.1396C66.2842 37.8076 66.4697 37.4121 66.4697 36.9531V35.9863ZM74.6143 33.7451C74.6143 33.833 74.5654 33.9111 74.4678 33.9795C74.3799 34.0479 74.2578 34.0723 74.1016 34.0527C73.9258 34.0527 73.8135 34.0234 73.7646 33.9648C73.7256 33.8965 73.7012 33.8135 73.6914 33.7158C73.6719 33.5303 73.623 33.3887 73.5449 33.291C73.4668 33.1836 73.3105 33.1299 73.0762 33.1299H72.3145V39.6191H70.7471V33.1299H69.8535C69.6484 33.1299 69.5117 33.1689 69.4434 33.2471C69.3848 33.3252 69.3408 33.4863 69.3115 33.7305C69.3018 33.8184 69.2627 33.8965 69.1943 33.9648C69.1357 34.0234 69.0186 34.0527 68.8428 34.0527C68.6865 34.0723 68.5791 34.0479 68.5205 33.9795C68.4521 33.9111 68.418 33.833 68.418 33.7451L68.4473 32.1484H74.585L74.6143 33.7451ZM76.5625 36.1328C76.5918 36.7969 76.8066 37.3779 77.207 37.876C77.6172 38.374 78.1592 38.6572 78.833 38.7256C79.0576 38.7549 79.3066 38.7451 79.5801 38.6963C79.8535 38.6475 80.1123 38.5645 80.3564 38.4473C80.5908 38.3398 80.7666 38.3057 80.8838 38.3447C81.001 38.3838 81.0986 38.4668 81.1768 38.5938C81.2354 38.7109 81.2305 38.833 81.1621 38.96C81.0938 39.0869 81.001 39.1846 80.8838 39.2529C80.6299 39.4092 80.293 39.5361 79.873 39.6338C79.4531 39.7314 78.9844 39.7656 78.4668 39.7363C77.4902 39.6777 76.6553 39.292 75.9619 38.5791C75.2783 37.8662 74.9365 36.8701 74.9365 35.5908C74.9365 34.458 75.2441 33.5693 75.8594 32.9248C76.4844 32.2803 77.3145 31.958 78.3496 31.958C79.2285 31.958 79.9512 32.2559 80.5176 32.8516C81.084 33.4375 81.3672 34.3311 81.3672 35.5322V36.1328H76.5625ZM76.5625 35.0928H79.7998C79.7998 34.3604 79.6484 33.8232 79.3457 33.4814C79.0527 33.1396 78.7109 32.9688 78.3203 32.9688C77.8613 32.9688 77.4561 33.1641 77.1045 33.5547C76.7627 33.9355 76.582 34.4482 76.5625 35.0928ZM82.5391 33.833C82.5391 33.5303 82.5098 33.3203 82.4512 33.2031C82.3926 33.0859 82.3193 33.0127 82.2314 32.9834C82.0166 32.9346 81.8701 32.8809 81.792 32.8223C81.7139 32.7539 81.6748 32.6562 81.6748 32.5293C81.6748 32.2754 81.8262 32.1484 82.1289 32.1484H83.5205C83.8818 32.1484 84.0674 32.2949 84.0771 32.5879C84.5264 32.168 85.1123 31.958 85.835 31.958C86.8018 31.958 87.5439 32.3145 88.0615 33.0273C88.5791 33.7402 88.8379 34.6924 88.8379 35.8838C88.8379 36.9971 88.5645 37.9199 88.0176 38.6523C87.4707 39.3848 86.6992 39.751 85.7031 39.751C85.0293 39.751 84.4873 39.5801 84.0771 39.2383V42.1533H82.5391V33.833ZM87.2852 35.9277C87.2852 35.0195 87.124 34.3115 86.8018 33.8037C86.4893 33.2959 86.084 33.042 85.5859 33.042C85.2344 33.042 84.8975 33.2324 84.5752 33.6133C84.2529 33.9941 84.0918 34.4971 84.0918 35.1221V36.5137C84.0918 37.3242 84.2529 37.9004 84.5752 38.2422C84.9072 38.5742 85.2539 38.7402 85.6152 38.7402C86.0254 38.7402 86.4062 38.4961 86.7578 38.0078C87.1094 37.5195 87.2852 36.8262 87.2852 35.9277ZM94.0967 38.9893C93.9893 39.1357 93.7598 39.3018 93.4082 39.4873C93.0566 39.6631 92.5781 39.751 91.9727 39.751C91.3184 39.751 90.7715 39.5605 90.332 39.1797C89.9023 38.7891 89.6875 38.2812 89.6875 37.6562C89.6875 36.8262 90.0586 36.1621 90.8008 35.6641C91.5527 35.166 92.4951 34.917 93.6279 34.917H94.0967V34.5654C94.0967 34.0674 93.9648 33.6768 93.7012 33.3936C93.4375 33.1104 93.1006 32.9688 92.6904 32.9688C92.3291 32.9688 92.0264 33.0615 91.7822 33.2471C91.5381 33.4326 91.416 33.75 91.416 34.1992H89.7754C89.7754 33.5059 90.0439 32.959 90.5811 32.5586C91.1279 32.1582 91.8457 31.958 92.7344 31.958C93.6719 31.958 94.3896 32.1924 94.8877 32.6611C95.3857 33.1299 95.6348 33.7695 95.6348 34.5801V39.6484H94.0967V38.9893ZM94.0967 35.9863C93.1885 35.957 92.4805 36.084 91.9727 36.3672C91.4746 36.6406 91.2256 37.0215 91.2256 37.5098C91.2256 37.9199 91.333 38.208 91.5479 38.374C91.7627 38.54 92.0068 38.623 92.2803 38.623C92.749 38.623 93.1689 38.4619 93.54 38.1396C93.9111 37.8076 94.0967 37.4121 94.0967 36.9531V35.9863ZM102.021 32.1484H107.617V39.6484H106.079V33.1152H104.629C104.395 33.1152 104.253 33.1299 104.204 33.1592C104.165 33.1885 104.146 33.3447 104.146 33.6279V37.7295C104.146 38.4131 103.979 38.9258 103.647 39.2676C103.315 39.5996 102.812 39.7656 102.139 39.7656C101.582 39.7656 101.152 39.624 100.85 39.3408C100.557 39.0479 100.4 38.6523 100.381 38.1543H101.919C101.919 38.4961 101.948 38.7109 102.007 38.7988C102.075 38.8867 102.144 38.9307 102.212 38.9307C102.349 38.9307 102.456 38.8574 102.534 38.7109C102.612 38.5645 102.651 38.2666 102.651 37.8174V33.8184C102.651 33.5254 102.617 33.3203 102.549 33.2031C102.49 33.0859 102.402 33.0176 102.285 32.998C102.1 32.9492 101.938 32.9004 101.802 32.8516C101.675 32.793 101.611 32.6904 101.611 32.5439C101.611 32.2803 101.748 32.1484 102.021 32.1484ZM113.052 35.8984C113.052 36.2891 113.081 36.665 113.14 37.0264C113.208 37.3877 113.306 37.7002 113.433 37.9639C113.579 38.2471 113.745 38.4668 113.931 38.623C114.126 38.7695 114.336 38.8428 114.561 38.8428C114.785 38.8428 114.99 38.7695 115.176 38.623C115.371 38.4668 115.532 38.2422 115.659 37.9492C115.806 37.6758 115.908 37.3584 115.967 36.9971C116.035 36.6357 116.069 36.2646 116.069 35.8838C116.069 35.5127 116.035 35.1465 115.967 34.7852C115.908 34.4141 115.806 34.0918 115.659 33.8184C115.522 33.5254 115.356 33.3008 115.161 33.1445C114.966 32.9785 114.751 32.8955 114.517 32.8955C114.282 32.8955 114.067 32.9736 113.872 33.1299C113.687 33.2861 113.53 33.5059 113.403 33.7891C113.276 34.0527 113.184 34.3701 113.125 34.7412C113.076 35.1123 113.052 35.498 113.052 35.8984ZM109.39 33.833C109.39 33.5303 109.355 33.3203 109.287 33.2031C109.229 33.0859 109.146 33.0176 109.038 32.998C108.843 32.9492 108.682 32.9004 108.555 32.8516C108.438 32.793 108.379 32.6904 108.379 32.5439C108.379 32.2803 108.53 32.1484 108.833 32.1484H110.415C110.776 32.1484 110.957 32.3047 110.957 32.6172V35.5029H111.44C111.46 35.0928 111.533 34.668 111.66 34.2285C111.787 33.7891 111.978 33.4082 112.231 33.0859C112.495 32.7441 112.808 32.4707 113.169 32.2656C113.53 32.0605 113.975 31.958 114.502 31.958C115.596 31.958 116.401 32.3193 116.919 33.042C117.446 33.7646 117.71 34.7119 117.71 35.8838C117.71 37.0459 117.446 37.9883 116.919 38.7109C116.401 39.4238 115.615 39.7803 114.561 39.7803C113.535 39.7803 112.769 39.4727 112.261 38.8574C111.753 38.2422 111.479 37.4121 111.44 36.3672H110.957V39.6338H109.39V33.833ZM119.116 33.833C119.116 33.5303 119.082 33.3203 119.014 33.2031C118.955 33.0859 118.872 33.0176 118.765 32.998C118.569 32.9492 118.408 32.9004 118.281 32.8516C118.164 32.793 118.105 32.6904 118.105 32.5439C118.105 32.2803 118.257 32.1484 118.56 32.1484H120.127C120.488 32.1484 120.669 32.3047 120.669 32.6172V34.9609C120.698 34.8926 120.767 34.7705 120.874 34.5947C121.06 34.3115 121.235 33.999 121.401 33.6572C121.587 33.3154 121.792 32.9883 122.017 32.6758C122.251 32.3535 122.583 32.1729 123.013 32.1338C123.657 32.0752 124.131 32.2363 124.434 32.6172C124.736 32.9883 124.888 33.4375 124.888 33.9648H123.379C123.379 33.7305 123.35 33.5791 123.291 33.5107C123.242 33.4326 123.203 33.3936 123.174 33.3936C123.145 33.3936 123.076 33.4863 122.969 33.6719C122.871 33.8574 122.759 34.0918 122.632 34.375C122.505 34.6484 122.344 34.9219 122.148 35.1953C121.963 35.4688 121.777 35.6348 121.592 35.6934L124.917 39.6484H123.115L120.669 36.6016V39.6484H119.116V33.833ZM131.084 39.2529C130.801 39.4287 130.449 39.5605 130.029 39.6484C129.609 39.7363 129.141 39.7656 128.623 39.7363C127.646 39.6777 126.812 39.292 126.118 38.5791C125.435 37.8662 125.093 36.8701 125.093 35.5908C125.093 34.458 125.4 33.5693 126.016 32.9248C126.641 32.2803 127.48 31.958 128.535 31.958C129.385 31.958 130.068 32.168 130.586 32.5879C131.104 32.998 131.387 33.5303 131.436 34.1846H129.824C129.824 33.7939 129.702 33.4961 129.458 33.291C129.224 33.0762 128.892 32.9688 128.462 32.9688C128.042 32.9688 127.642 33.1885 127.261 33.6279C126.89 34.0674 126.704 34.7217 126.704 35.5908C126.704 36.5088 126.914 37.2461 127.334 37.8027C127.764 38.3496 128.315 38.6572 128.989 38.7256C129.214 38.7549 129.458 38.7451 129.722 38.6963C129.995 38.6475 130.259 38.5596 130.513 38.4326C130.747 38.3154 130.942 38.2959 131.099 38.374C131.255 38.4521 131.357 38.5352 131.406 38.623C131.445 38.75 131.431 38.8721 131.362 38.9893C131.294 39.1064 131.201 39.1943 131.084 39.2529ZM137.236 33.833C137.236 33.5303 137.202 33.3203 137.134 33.2031C137.075 33.0859 136.992 33.0176 136.885 32.998C136.689 32.9492 136.528 32.9004 136.401 32.8516C136.284 32.793 136.226 32.6904 136.226 32.5439C136.226 32.2803 136.377 32.1484 136.68 32.1484H138.247C138.608 32.1484 138.789 32.3047 138.789 32.6172V34.9609C138.818 34.8926 138.887 34.7705 138.994 34.5947C139.18 34.3115 139.355 33.999 139.521 33.6572C139.707 33.3154 139.912 32.9883 140.137 32.6758C140.371 32.3535 140.703 32.1729 141.133 32.1338C141.777 32.0752 142.251 32.2363 142.554 32.6172C142.856 32.9883 143.008 33.4375 143.008 33.9648H141.499C141.499 33.7305 141.47 33.5791 141.411 33.5107C141.362 33.4326 141.323 33.3936 141.294 33.3936C141.265 33.3936 141.196 33.4863 141.089 33.6719C140.991 33.8574 140.879 34.0918 140.752 34.375C140.625 34.6484 140.464 34.9219 140.269 35.1953C140.083 35.4688 139.897 35.6348 139.712 35.6934L143.037 39.6484H141.235L138.789 36.6016V39.6484H137.236V33.833ZM144.15 32.1484H149.746V39.6484H148.208V33.1152H146.758C146.523 33.1152 146.382 33.1299 146.333 33.1592C146.294 33.1885 146.274 33.3447 146.274 33.6279V37.7295C146.274 38.4131 146.108 38.9258 145.776 39.2676C145.444 39.5996 144.941 39.7656 144.268 39.7656C143.711 39.7656 143.281 39.624 142.979 39.3408C142.686 39.0479 142.529 38.6523 142.51 38.1543H144.048C144.048 38.4961 144.077 38.7109 144.136 38.7988C144.204 38.8867 144.272 38.9307 144.341 38.9307C144.478 38.9307 144.585 38.8574 144.663 38.7109C144.741 38.5645 144.78 38.2666 144.78 37.8174V33.8184C144.78 33.5254 144.746 33.3203 144.678 33.2031C144.619 33.0859 144.531 33.0176 144.414 32.998C144.229 32.9492 144.067 32.9004 143.931 32.8516C143.804 32.793 143.74 32.6904 143.74 32.5439C143.74 32.2803 143.877 32.1484 144.15 32.1484ZM155.547 38.9893C155.439 39.1357 155.21 39.3018 154.858 39.4873C154.507 39.6631 154.028 39.751 153.423 39.751C152.769 39.751 152.222 39.5605 151.782 39.1797C151.353 38.7891 151.138 38.2812 151.138 37.6562C151.138 36.8262 151.509 36.1621 152.251 35.6641C153.003 35.166 153.945 34.917 155.078 34.917H155.547V34.5654C155.547 34.0674 155.415 33.6768 155.151 33.3936C154.888 33.1104 154.551 32.9688 154.141 32.9688C153.779 32.9688 153.477 33.0615 153.232 33.2471C152.988 33.4326 152.866 33.75 152.866 34.1992H151.226C151.226 33.5059 151.494 32.959 152.031 32.5586C152.578 32.1582 153.296 31.958 154.185 31.958C155.122 31.958 155.84 32.1924 156.338 32.6611C156.836 33.1299 157.085 33.7695 157.085 34.5801V39.6484H155.547V38.9893ZM155.547 35.9863C154.639 35.957 153.931 36.084 153.423 36.3672C152.925 36.6406 152.676 37.0215 152.676 37.5098C152.676 37.9199 152.783 38.208 152.998 38.374C153.213 38.54 153.457 38.623 153.73 38.623C154.199 38.623 154.619 38.4619 154.99 38.1396C155.361 37.8076 155.547 37.4121 155.547 36.9531V35.9863ZM164.028 39.2529C163.745 39.4287 163.394 39.5605 162.974 39.6484C162.554 39.7363 162.085 39.7656 161.567 39.7363C160.591 39.6777 159.756 39.292 159.062 38.5791C158.379 37.8662 158.037 36.8701 158.037 35.5908C158.037 34.458 158.345 33.5693 158.96 32.9248C159.585 32.2803 160.425 31.958 161.479 31.958C162.329 31.958 163.013 32.168 163.53 32.5879C164.048 32.998 164.331 33.5303 164.38 34.1846H162.769C162.769 33.7939 162.646 33.4961 162.402 33.291C162.168 33.0762 161.836 32.9688 161.406 32.9688C160.986 32.9688 160.586 33.1885 160.205 33.6279C159.834 34.0674 159.648 34.7217 159.648 35.5908C159.648 36.5088 159.858 37.2461 160.278 37.8027C160.708 38.3496 161.26 38.6572 161.934 38.7256C162.158 38.7549 162.402 38.7451 162.666 38.6963C162.939 38.6475 163.203 38.5596 163.457 38.4326C163.691 38.3154 163.887 38.2959 164.043 38.374C164.199 38.4521 164.302 38.5352 164.351 38.623C164.39 38.75 164.375 38.8721 164.307 38.9893C164.238 39.1064 164.146 39.1943 164.028 39.2529ZM171.104 39.2529C170.82 39.4287 170.469 39.5605 170.049 39.6484C169.629 39.7363 169.16 39.7656 168.643 39.7363C167.666 39.6777 166.831 39.292 166.138 38.5791C165.454 37.8662 165.112 36.8701 165.112 35.5908C165.112 34.458 165.42 33.5693 166.035 32.9248C166.66 32.2803 167.5 31.958 168.555 31.958C169.404 31.958 170.088 32.168 170.605 32.5879C171.123 32.998 171.406 33.5303 171.455 34.1846H169.844C169.844 33.7939 169.722 33.4961 169.478 33.291C169.243 33.0762 168.911 32.9688 168.481 32.9688C168.062 32.9688 167.661 33.1885 167.28 33.6279C166.909 34.0674 166.724 34.7217 166.724 35.5908C166.724 36.5088 166.934 37.2461 167.354 37.8027C167.783 38.3496 168.335 38.6572 169.009 38.7256C169.233 38.7549 169.478 38.7451 169.741 38.6963C170.015 38.6475 170.278 38.5596 170.532 38.4326C170.767 38.3154 170.962 38.2959 171.118 38.374C171.274 38.4521 171.377 38.5352 171.426 38.623C171.465 38.75 171.45 38.8721 171.382 38.9893C171.313 39.1064 171.221 39.1943 171.104 39.2529ZM176.772 38.9893C176.665 39.1357 176.436 39.3018 176.084 39.4873C175.732 39.6631 175.254 39.751 174.648 39.751C173.994 39.751 173.447 39.5605 173.008 39.1797C172.578 38.7891 172.363 38.2812 172.363 37.6562C172.363 36.8262 172.734 36.1621 173.477 35.6641C174.229 35.166 175.171 34.917 176.304 34.917H176.772V34.5654C176.772 34.0674 176.641 33.6768 176.377 33.3936C176.113 33.1104 175.776 32.9688 175.366 32.9688C175.005 32.9688 174.702 33.0615 174.458 33.2471C174.214 33.4326 174.092 33.75 174.092 34.1992H172.451C172.451 33.5059 172.72 32.959 173.257 32.5586C173.804 32.1582 174.521 31.958 175.41 31.958C176.348 31.958 177.065 32.1924 177.563 32.6611C178.062 33.1299 178.311 33.7695 178.311 34.5801V39.6484H176.772V38.9893ZM176.772 35.9863C175.864 35.957 175.156 36.084 174.648 36.3672C174.15 36.6406 173.901 37.0215 173.901 37.5098C173.901 37.9199 174.009 38.208 174.224 38.374C174.438 38.54 174.683 38.623 174.956 38.623C175.425 38.623 175.845 38.4619 176.216 38.1396C176.587 37.8076 176.772 37.4121 176.772 36.9531V35.9863Z" fill="#47C2E9"/>
</svg>
